<?xml version="1.0" standalone="no"?>
<!DOCTYPE svg PUBLIC "-//W3C//DTD SVG 20010904//EN"
 "http://www.w3.org/TR/2001/REC-SVG-20010904/DTD/svg10.dtd">
<svg version="1.0" xmlns="http://www.w3.org/2000/svg"
 width="280.000000pt" height="280.000000pt" viewBox="0 0 280.000000 280.000000"
 preserveAspectRatio="xMidYMid meet">

<g transform="translate(0.000000,280.000000) scale(0.100000,-0.100000)"
fill="#000000" stroke="none">
<path d="M1180 2414 c-86 -18 -268 -96 -353 -151 -92 -58 -233 -200 -295 -295
-170 -262 -215 -585 -121 -878 33 -102 92 -137 152 -90 38 30 41 61 13 129
-44 103 -59 277 -36 419 14 82 74 229 133 324 165 263 500 424 810 389 213
-24 387 -111 538 -267 250 -260 309 -655 146 -979 -112 -225 -284 -363 -570
-459 -43 -14 -198 -27 -259 -21 l-68 7 0 333 0 333 198 5 c228 5 264 14 341
83 88 79 122 160 115 275 -5 81 -41 154 -108 218 -86 81 -113 86 -436 86
l-275 0 -3 -82 -3 -83 253 0 c139 0 268 -4 286 -9 37 -11 91 -53 109 -85 7
-11 12 -45 13 -75 0 -53 -2 -56 -55 -108 l-54 -53 -269 0 -269 0 -6 -242 c-10
-352 -8 -638 4 -681 5 -20 20 -44 32 -51 71 -46 366 -46 522 -1 339 97 591
334 707 664 72 204 76 439 13 628 -36 105 -116 269 -157 318 -61 74 -212 218
-263 250 -76 49 -278 133 -361 150 -93 19 -334 19 -424 -1z"/>
<path d="M628 913 c7 -3 16 -2 19 1 4 3 -2 6 -13 5 -11 0 -14 -3 -6 -6z"/>
<path d="M576 885 c-19 -17 -26 -33 -25 -57 l1 -33 8 37 c3 20 18 46 31 57 13
11 21 20 18 21 -3 0 -18 -11 -33 -25z"/>
<path d="M665 900 c3 -5 8 -10 11 -10 2 0 4 5 4 10 0 6 -5 10 -11 10 -5 0 -7
-4 -4 -10z"/>
<path d="M696 877 c3 -10 9 -15 12 -12 3 3 0 11 -7 18 -10 9 -11 8 -5 -6z"/>
<path d="M712 830 c0 -14 2 -19 5 -12 2 6 2 18 0 25 -3 6 -5 1 -5 -13z"/>
<path d="M691 777 c-13 -21 -12 -21 5 -5 10 10 16 20 13 22 -3 3 -11 -5 -18
-17z"/>
<path d="M599 757 c5 -5 24 -7 42 -5 33 3 33 4 -8 8 -23 3 -39 2 -34 -3z"/>
</g>
</svg>
